<svg width="24" height="24" fill="none" viewBox="0 0 24 24" xmlns="http://www.w3.org/2000/svg">
    <path
        d="M6.248 16.002c.966 0 1.75.784 1.75 1.75v2.498A1.75 1.75 0 0 1 6.248 22H3.75A1.75 1.75 0 0 1 2 20.25v-2.498c0-.966.784-1.75 1.75-1.75h2.498Zm0 1.5H3.75a.25.25 0 0 0-.25.25v2.498c0 .138.112.25.25.25h2.498a.25.25 0 0 0 .25-.25v-2.498a.25.25 0 0 0-.25-.25Zm3.5.498h11.505a.75.75 0 0 1 .102 1.493l-.102.007H9.748a.75.75 0 0 1-.102-1.493L9.748 18h11.505H9.748Zm-3.5-8.999c.966 0 1.75.784 1.75 1.75v2.498a1.75 1.75 0 0 1-1.75 1.75H3.75A1.75 1.75 0 0 1 2 13.249V10.75c0-.966.784-1.75 1.75-1.75h2.498Zm0 1.5H3.75a.25.25 0 0 0-.25.25v2.498c0 .138.112.25.25.25h2.498a.25.25 0 0 0 .25-.25V10.75a.25.25 0 0 0-.25-.25Zm3.5.499h11.505a.75.75 0 0 1 .102 1.493l-.102.007H9.748a.75.75 0 0 1-.102-1.493L9.748 11h11.505H9.748Zm-3.5-9c.966 0 1.75.784 1.75 1.75v2.498a1.75 1.75 0 0 1-1.75 1.75H3.75A1.75 1.75 0 0 1 2 6.248V3.75C2 2.784 2.784 2 3.75 2h2.498Zm0 1.5H3.75a.25.25 0 0 0-.25.25v2.498c0 .138.112.25.25.25h2.498a.25.25 0 0 0 .25-.25V3.75a.25.25 0 0 0-.25-.25Zm3.5.5h11.505a.75.75 0 0 1 .102 1.493l-.102.007H9.748a.75.75 0 0 1-.102-1.493L9.748 4h11.505H9.748Z"
        fill="#212121" />
</svg>