<svg width="24" height="24" fill="none" viewBox="0 0 24 24" xmlns="http://www.w3.org/2000/svg">
    <path
        d="M18 10a4 4 0 0 1 3 6.648v4.6a.75.75 0 0 1-1.09.67l-.09-.055L18 20.591l-1.82 1.272a.75.75 0 0 1-1.172-.51l-.007-.105v-4.602A4 4 0 0 1 18 10Zm1.5 7.71a3.99 3.99 0 0 1-1.5.291 3.99 3.99 0 0 1-1.5-.291v2.099l1.071-.747a.75.75 0 0 1 .759-.06l.1.06 1.07.747V17.71Zm-.25-14.706a2.75 2.75 0 0 1 2.745 2.582l.005.168.001 5.246a5.027 5.027 0 0 0-1.5-1.331L20.5 5.754a1.25 1.25 0 0 0-1.122-1.244l-.128-.006H4.75a1.25 1.25 0 0 0-1.244 1.122l-.006.128v9.5c0 .647.492 1.18 1.122 1.243l.128.007 8.922.001.123.203.134.196.071.094-.001 1.006H4.75a2.75 2.75 0 0 1-2.745-2.583L2 15.254v-9.5a2.75 2.75 0 0 1 2.582-2.745l.168-.005h14.5ZM18 11.5a2.5 2.5 0 1 0 0 5.001 2.5 2.5 0 0 0 0-5.001Zm-6.75 1a.75.75 0 0 1 .102 1.493L11.25 14h-4.5a.75.75 0 0 1-.102-1.493l.102-.007h4.5Zm6-5.5a.75.75 0 0 1 .102 1.493l-.102.007H6.75a.75.75 0 0 1-.102-1.493L6.75 7h10.5Z"
        fill="#fff" />
</svg>