<svg width="24" height="24" fill="none" viewBox="0 0 24 24" xmlns="http://www.w3.org/2000/svg">
    <path
        d="M6.75 6a.75.75 0 0 0-.75.75v10.5c0 .414.336.75.75.75h10.5a.75.75 0 0 0 .75-.75V6.75a.75.75 0 0 0-.75-.75H6.75Zm11.5-3H5.75A2.75 2.75 0 0 0 3 5.75v12.5A2.75 2.75 0 0 0 5.75 21h12.5A2.75 2.75 0 0 0 21 18.25V5.75A2.75 2.75 0 0 0 18.25 3ZM4.5 5.75c0-.69.56-1.25 1.25-1.25h12.5c.69 0 1.25.56 1.25 1.25v12.5c0 .69-.56 1.25-1.25 1.25H5.75c-.69 0-1.25-.56-1.25-1.25V5.75Z"
        fill="#212121" />
</svg>