<svg width="24" height="24" fill="none" viewBox="0 0 24 24" xmlns="http://www.w3.org/2000/svg">
    <path
        d="M12 3a2 2 0 0 1 2-2h7a2 2 0 0 1 2 2v6a2 2 0 0 1-2 2h-7a2 2 0 0 1-2-2V3Zm2.5 1a.5.5 0 0 0 0 1h6a.5.5 0 0 0 0-1h-6Zm0 3a.5.5 0 0 0 0 1h6a.5.5 0 0 0 0-1h-6ZM5.25 3H11v1.5H5.25A1.75 1.75 0 0 0 3.5 6.25v8.5c0 .966.784 1.75 1.75 1.75h2.249v3.75l5.015-3.75h6.236a1.75 1.75 0 0 0 1.75-1.75V12h.5c.35 0 .687-.06 1-.17v2.92A3.25 3.25 0 0 1 18.75 18h-5.738L8 21.75a1.25 1.25 0 0 1-1.999-1V18h-.75A3.25 3.25 0 0 1 2 14.75v-8.5A3.25 3.25 0 0 1 5.25 3Z"
        fill="#fff" />
</svg>