<svg width="24" height="24" fill="none" viewBox="0 0 24 24" xmlns="http://www.w3.org/2000/svg">
    <path
        d="M8.75 11.5a.75.75 0 0 0 0 1.5h6.5a.75.75 0 0 0 0-1.5h-6.5Zm0 2.75a.75.75 0 0 0 0 1.5h6.5a.75.75 0 0 0 0-1.5h-6.5Zm0 2.75a.75.75 0 0 0 0 1.5h6.5a.75.75 0 0 0 0-1.5h-6.5Zm4.835-14.414 5.829 5.828A2 2 0 0 1 20 9.828V20a2 2 0 0 1-2 2H6a2 2 0 0 1-2-2V4a2 2 0 0 1 2-2h6.172c.028 0 .055.004.082.007.02.003.04.006.059.007.215.015.427.056.624.138.057.024.112.056.166.087l.05.029.047.024a.652.652 0 0 1 .081.044c.078.053.148.116.219.18a.63.63 0 0 0 .036.03.491.491 0 0 1 .049.04ZM18 20.5a.5.5 0 0 0 .5-.5V10H14a2 2 0 0 1-2-2V3.5H6a.5.5 0 0 0-.5.5v16a.5.5 0 0 0 .5.5h12Zm-.622-12L13.5 4.621V8a.5.5 0 0 0 .5.5h3.378Z"
        fill="#fff" />
</svg>