<svg width="24" height="24" fill="none" viewBox="0 0 24 24" xmlns="http://www.w3.org/2000/svg">
    <path
        d="M10.75 14A2.25 2.25 0 0 1 13 16.25v1.502l-.008.108c-.31 2.127-2.22 3.149-5.425 3.149-3.193 0-5.134-1.01-5.553-3.112L2 17.75v-1.5A2.25 2.25 0 0 1 4.25 14h6.5Zm0 1.5h-6.5a.75.75 0 0 0-.75.75v1.42c.28 1.2 1.55 1.839 4.067 1.839 2.516 0 3.73-.631 3.933-1.816V16.25a.75.75 0 0 0-.75-.75ZM7.5 6a3.5 3.5 0 1 1 0 7 3.5 3.5 0 0 1 0-7Zm12.25-4A2.25 2.25 0 0 1 22 4.25v3.5A2.25 2.25 0 0 1 19.75 10h-1.455l-2.166 2.141A1.25 1.25 0 0 1 14 11.253V9.986a2.25 2.25 0 0 1-2-2.236v-3.5A2.25 2.25 0 0 1 14.25 2h5.5ZM7.5 7.5a2 2 0 1 0 0 4 2 2 0 0 0 0-4Zm12.25-4h-5.5a.75.75 0 0 0-.75.75v3.5c0 .414.336.75.75.75h1.249v2.154L17.68 8.5h2.071a.75.75 0 0 0 .75-.75v-3.5a.75.75 0 0 0-.75-.75Z"
        fill="#212121" />
</svg>