<?xml version="1.0" standalone="no"?><!DOCTYPE svg PUBLIC "-//W3C//DTD SVG 1.1//EN" "http://www.w3.org/Graphics/SVG/1.1/DTD/svg11.dtd"><svg t="1695055509637" class="icon" viewBox="0 0 1024 1024" version="1.1" xmlns="http://www.w3.org/2000/svg" p-id="4831" xmlns:xlink="http://www.w3.org/1999/xlink" width="200" height="200"><path d="M180.516571 631.588571a43.885714 43.885714 0 0 0-68.461714 54.930286l146.285714 182.125714A43.885714 43.885714 0 0 0 336.457143 841.142857v-658.285714a43.885714 43.885714 0 1 0-87.771429 0v533.577143l-68.169143-84.845715zM482.742857 263.314286h351.524572a43.885714 43.885714 0 0 0 0-87.771429H482.742857a43.885714 43.885714 0 1 0 0 87.771429zM482.742857 555.885714h351.524572a43.885714 43.885714 0 0 0 0-87.771428H482.742857a43.885714 43.885714 0 1 0 0 87.771428zM482.742857 848.457143h351.524572a43.885714 43.885714 0 0 0 0-87.771429H482.742857a43.885714 43.885714 0 0 0 0 87.771429z" fill="#ffffff" p-id="4832"></path></svg>