<svg width="24" height="24" fill="none" viewBox="0 0 24 24" xmlns="http://www.w3.org/2000/svg">
    <path
        d="M18 2a1 1 0 1 0-2 0v1h-4a1 1 0 0 0-1 1v1.25a1 1 0 1 0 2 0V5h8v.25a1 1 0 1 0 2 0V4a1 1 0 0 0-1-1h-4V2ZM8.563 7.505l.056.117 5.307 13.005a1 1 0 0 1-1.801.86l-.05-.105L10.692 18H4.407l-1.49 3.407a1 1 0 0 1-1.208.555l-.11-.04a1 1 0 0 1-.555-1.208l.04-.11L6.777 7.6c.337-.77 1.395-.795 1.786-.094Zm-.902 3.062L5.282 16h4.595l-2.216-5.432ZM13.499 7a1 1 0 0 1 1-1h5a1 1 0 0 1 .708 1.707L18.414 9.5H22a1 1 0 1 1 0 2h-4v2.984a2.5 2.5 0 0 1-3.219 2.394l-.569-.17a1 1 0 1 1 .575-1.916l.569.17a.5.5 0 0 0 .643-.478V11.5H12a1 1 0 1 1 0-2h4a1 1 0 0 1 .292-.707L17.085 8H14.5a1 1 0 0 1-1-1Z"
        fill="#fff" />
</svg>