<?xml version="1.0" standalone="no"?><!DOCTYPE svg PUBLIC "-//W3C//DTD SVG 1.1//EN" "http://www.w3.org/Graphics/SVG/1.1/DTD/svg11.dtd"><svg t="1699704438720" class="icon" viewBox="0 0 1024 1024" version="1.1" xmlns="http://www.w3.org/2000/svg" p-id="2363" xmlns:xlink="http://www.w3.org/1999/xlink" width="200" height="200"><path d="M896.021502 255.956996 607.897867 255.956996c-17.717453 0-31.994625-14.277171-31.994625-31.994625 0-17.717453 14.277171-31.994625 31.994625-31.994625l287.951621 0c17.717453 0 31.994625 14.277171 31.994625 31.994625C928.016126 241.679825 913.738955 255.956996 896.021502 255.956996z" fill="#000000" p-id="2364"></path><path d="M896.021502 415.930119 607.897867 415.930119c-17.717453 0-31.994625-14.277171-31.994625-31.994625s14.277171-31.994625 31.994625-31.994625l287.951621 0c17.717453 0 31.994625 14.277171 31.994625 31.994625S913.738955 415.930119 896.021502 415.930119z" fill="#000000" p-id="2365"></path><path d="M896.021502 672.05913 607.897867 672.05913c-17.717453 0-31.994625-14.277171-31.994625-31.994625s14.277171-31.994625 31.994625-31.994625l287.951621 0c17.717453 0 31.994625 14.277171 31.994625 31.994625S913.738955 672.05913 896.021502 672.05913z" fill="#000000" p-id="2366"></path><path d="M896.021502 832.032253 607.897867 832.032253c-17.717453 0-31.994625-14.277171-31.994625-31.994625s14.277171-31.994625 31.994625-31.994625l287.951621 0c17.717453 0 31.994625 14.277171 31.994625 31.994625S913.738955 832.032253 896.021502 832.032253z" fill="#000000" p-id="2367"></path><path d="M383.935495 479.919368 191.967747 479.919368c-52.980346 0-95.983874-43.003528-95.983874-95.983874L95.983874 191.967747c0-52.980346 43.003528-95.983874 95.983874-95.983874l191.967747 0c52.980346 0 95.983874 43.003528 95.983874 95.983874l0 191.967747C479.919368 436.915841 436.915841 479.919368 383.935495 479.919368zM191.967747 159.973123c-17.545439 0-31.994625 14.449185-31.994625 31.994625l0 191.967747c0 17.545439 14.449185 31.994625 31.994625 31.994625l191.967747 0c17.545439 0 31.994625-14.449185 31.994625-31.994625L415.930119 191.967747c0-17.545439-14.449185-31.994625-31.994625-31.994625L191.967747 159.973123 191.967747 159.973123z" fill="#000000" p-id="2368"></path><path d="M383.935495 928.016126 191.967747 928.016126c-52.980346 0-95.983874-43.003528-95.983874-95.983874L95.983874 639.892491c0-52.980346 43.003528-95.983874 95.983874-95.983874l191.967747 0c52.980346 0 95.983874 43.003528 95.983874 95.983874l0 191.967747C479.919368 884.840585 436.915841 928.016126 383.935495 928.016126zM191.967747 607.897867c-17.545439 0-31.994625 14.277171-31.994625 31.994625l0 191.967747c0 17.717453 14.449185 31.994625 31.994625 31.994625l191.967747 0c17.545439 0 31.994625-14.277171 31.994625-31.994625L415.930119 639.892491c0-17.717453-14.449185-31.994625-31.994625-31.994625L191.967747 607.897867 191.967747 607.897867z" fill="#000000" p-id="2369"></path></svg>