<?xml version="1.0" standalone="no"?><!DOCTYPE svg PUBLIC "-//W3C//DTD SVG 1.1//EN" "http://www.w3.org/Graphics/SVG/1.1/DTD/svg11.dtd"><svg t="1704623174527" class="icon" viewBox="0 0 1024 1024" version="1.1" xmlns="http://www.w3.org/2000/svg" p-id="1737" xmlns:xlink="http://www.w3.org/1999/xlink" width="200" height="200"><path d="M893.696 515.626667c11.904 12.16 12.8 30.976 2.858667 44.16l-3.285334 3.754666-359.125333 352.853334c-5.461333 5.845333-24.021333 7.253333-55.68 4.266666 0-25.856 1.664-42.112 4.906667-48.853333l3.328-3.754667 359.082666-352.853333a33.877333 33.877333 0 0 1 47.914667 0.426667z m-144.298667-390.954667c41.472 0 75.477333 31.914667 78.762667 72.533333l0.256 6.485334v247.850666a33.877333 33.877333 0 0 1-67.413333 4.565334l-0.298667-4.565334v-247.893333a11.306667 11.306667 0 0 0-8.704-10.965333l-2.602667-0.298667h-541.866666a11.306667 11.306667 0 0 0-10.965334 8.704l-0.298666 2.56v620.885333c0 5.333333 3.712 9.813333 8.704 10.965334l2.56 0.298666H357.12a33.877333 33.877333 0 0 1 4.565333 67.413334l-4.565333 0.341333H207.573333a79.018667 79.018667 0 0 1-78.762666-72.533333l-0.256-6.485334V203.690667c0-41.472 31.914667-75.477333 72.533333-78.762667l6.485333-0.256h541.824z m-239.616 307.584a33.877333 33.877333 0 1 1 0 67.712h-205.226666a33.877333 33.877333 0 0 1 0-67.712h205.226666z m133.418667-158.037333a33.877333 33.877333 0 1 1 0 67.712H304.554667a33.877333 33.877333 0 1 1 0-67.712h338.645333z" fill="#FFFFFF" p-id="1738"></path></svg>