<?xml version="1.0" standalone="no"?><!DOCTYPE svg PUBLIC "-//W3C//DTD SVG 1.1//EN" "http://www.w3.org/Graphics/SVG/1.1/DTD/svg11.dtd"><svg t="1699106120122" class="icon" viewBox="0 0 1024 1024" version="1.1" xmlns="http://www.w3.org/2000/svg" p-id="10500" xmlns:xlink="http://www.w3.org/1999/xlink" width="200" height="200"><path d="M910.165333 571.733333V268.458667a41.130667 41.130667 0 0 0-41.130666-41.130667H137.898667a41.130667 41.130667 0 0 0-41.130667 41.130667v492.202666A39.765333 39.765333 0 0 0 136.533333 800.426667h544.768a162.986667 162.986667 0 1 0 228.864-228.693334zM130.901333 268.458667a6.997333 6.997333 0 0 1 6.997334-6.997334h731.136a6.997333 6.997333 0 0 1 6.997333 6.997334v69.461333H130.901333zM136.533333 766.293333a5.632 5.632 0 0 1-5.632-5.632V372.053333h745.130667v179.029334a160.426667 160.426667 0 0 0-66.389333-14.336 162.986667 162.986667 0 0 0-148.992 229.546666z m673.109334 62.634667A129.024 129.024 0 1 1 938.666667 699.733333a129.194667 129.194667 0 0 1-129.024 129.194667z" fill="#000000" p-id="10501"></path><path d="M871.253333 682.666667h-44.544v-44.373334a17.066667 17.066667 0 0 0-34.133333 0V682.666667h-44.544a17.066667 17.066667 0 0 0 0 34.133333h44.544v44.544a17.066667 17.066667 0 1 0 34.133333 0V716.8h44.544a17.066667 17.066667 0 0 0 0-34.133333zM470.186667 502.784h84.138666a17.066667 17.066667 0 0 0 0-34.133333h-84.138666a17.066667 17.066667 0 0 0 0 34.133333zM584.362667 667.136H240.128a17.066667 17.066667 0 0 0 0 34.133333h344.234667a17.066667 17.066667 0 1 0 0-34.133333zM470.186667 589.994667h52.565333a17.066667 17.066667 0 1 0 0-34.133334h-52.565333a17.066667 17.066667 0 0 0 0 34.133334z" fill="#000000" p-id="10502"></path><path d="M326.997333 299.690667m-19.968 0a19.968 19.968 0 1 0 39.936 0 19.968 19.968 0 1 0-39.936 0Z" fill="#000000" p-id="10503"></path><path d="M182.784 279.722667a19.968 19.968 0 1 0 19.797333 19.968 19.968 19.968 0 0 0-19.797333-19.968z" fill="#000000" p-id="10504"></path><path d="M254.805333 299.690667m-19.968 0a19.968 19.968 0 1 0 39.936 0 19.968 19.968 0 1 0-39.936 0Z" fill="#000000" p-id="10505"></path><path d="M245.76 499.712a17.066667 17.066667 0 0 0 17.066667-17.066667V477.866667h30.037333v104.789333h-17.066667a17.066667 17.066667 0 1 0 0 34.133333h68.266667a17.066667 17.066667 0 0 0 0-34.133333h-17.066667V477.866667h30.208v5.632a17.066667 17.066667 0 0 0 34.133334 0V460.8a17.066667 17.066667 0 0 0-17.066667-17.066667H245.76a17.066667 17.066667 0 0 0-17.066667 17.066667v22.698667a17.066667 17.066667 0 0 0 17.066667 16.213333z" fill="#000000" p-id="10506"></path></svg>