<svg width="24" height="24" fill="none" viewBox="0 0 24 24" xmlns="http://www.w3.org/2000/svg">
    <path
        d="M8.22 8.22a.75.75 0 0 1 1.06 0L12 10.94l2.72-2.72a.75.75 0 1 1 1.06 1.06L13.06 12l2.72 2.72a.75.75 0 1 1-1.06 1.06L12 13.06l-2.72 2.72a.75.75 0 0 1-1.06-1.06L10.94 12 8.22 9.28a.75.75 0 0 1 0-1.06ZM6.25 3A3.25 3.25 0 0 0 3 6.25v11.5A3.25 3.25 0 0 0 6.25 21h11.5A3.25 3.25 0 0 0 21 17.75V6.25A3.25 3.25 0 0 0 17.75 3H6.25ZM4.5 6.25c0-.966.784-1.75 1.75-1.75h11.5c.966 0 1.75.784 1.75 1.75v11.5a1.75 1.75 0 0 1-1.75 1.75H6.25a1.75 1.75 0 0 1-1.75-1.75V6.25Z"
        fill="#212121" />
</svg>