<svg width="24" height="24" fill="none" viewBox="0 0 24 24" xmlns="http://www.w3.org/2000/svg">
    <path
        d="M3.28 2.22a.75.75 0 1 0-1.06 1.06l4.804 4.805-3.867.561c-1.107.161-1.55 1.522-.748 2.303l3.815 3.719-.9 5.251c-.19 1.103.968 1.944 1.959 1.423l4.715-2.479 4.716 2.48c.99.52 2.148-.32 1.96-1.424l-.04-.223 2.085 2.084a.75.75 0 0 0 1.061-1.06L3.28 2.22Zm13.518 15.639.345 2.014-4.516-2.374a1.35 1.35 0 0 0-1.257 0l-4.516 2.374.862-5.03a1.35 1.35 0 0 0-.388-1.194l-3.654-3.562 4.673-.679 8.45 8.45ZM20.323 10.087l-3.572 3.482 1.06 1.06 3.777-3.68c.8-.781.359-2.142-.748-2.303l-5.273-.766-2.358-4.777c-.495-1.004-1.926-1.004-2.421 0L9.3 6.118l1.12 1.12 1.578-3.2 2.259 4.577a1.35 1.35 0 0 0 1.016.738l5.05.734Z"
        fill="#212121" />
</svg>