<?xml version="1.0" standalone="no"?><!DOCTYPE svg PUBLIC "-//W3C//DTD SVG 1.1//EN" "http://www.w3.org/Graphics/SVG/1.1/DTD/svg11.dtd"><svg t="1694194068782" class="icon" viewBox="0 0 1024 1024" version="1.1" xmlns="http://www.w3.org/2000/svg" p-id="29751" xmlns:xlink="http://www.w3.org/1999/xlink" width="200" height="200"><path d="M368.989091 474.763636a182.225455 182.225455 0 1 1 182.341818-182.225454A182.458182 182.458182 0 0 1 368.989091 474.763636z m0-306.269091a124.043636 124.043636 0 1 0 124.16 124.043637 124.16 124.16 0 0 0-124.16-124.043637zM372.363636 890.647273h-1.512727c-20.829091-1.163636-43.054545-1.512727-64.465454-1.978182C211.549091 886.690909 113.454545 884.363636 54.458182 826.181818c-29.323636-26.414545-36.072727-70.981818-18.036364-119.505454 34.909091-93.090909 154.530909-194.56 335.825455-196.189091 181.76 1.629091 301.614545 102.865455 336.290909 196.189091 18.036364 48.523636 11.636364 93.090909-18.036364 119.505454-58.996364 58.181818-157.090909 59.927273-252.043636 61.789091-21.410909 0-43.636364 0.814545-64.465455 1.978182z m0-321.396364c-163.723636 0.930909-258.094545 95.418182-281.483636 158.254546-9.309091 25.018182-8.378182 46.545455 2.56 56.203636l1.28 1.163636c42.472727 42.24 129.047273 43.869091 212.712727 45.498182 21.410909 0 43.52 0.814545 64.930909 1.978182 21.294545-1.163636 43.52-1.512727 64.930909-1.978182 83.781818-1.629091 170.356364-3.374545 212.712728-45.498182l1.28-1.163636c10.938182-9.541818 11.636364-31.069091 2.56-56.203636C630.690909 664.669091 536.32 570.181818 372.363636 569.250909z" fill="" p-id="29752"></path><path d="M707.025455 502.225455a155.229091 155.229091 0 1 1 155.112727-155.112728 155.345455 155.345455 0 0 1-155.112727 155.112728z m0-252.16a97.047273 97.047273 0 1 0 97.047272 97.047272 97.163636 97.163636 0 0 0-97.047272-97.047272zM709.818182 844.683636h-1.512727c-13.381818-0.698182-26.996364-1.047273-40.843637-1.396363l1.28-58.181818c13.847273 0 27.694545 0.698182 41.076364 1.396363 17.570909-0.930909 35.723636-1.28 53.294545-1.629091 67.956364-1.28 138.24-2.676364 171.636364-35.956363l1.28-1.28c7.214545-6.4 7.563636-22.341818 0.698182-40.610909C918.109091 656.64 842.123636 581.818182 709.818182 580.072727a291.607273 291.607273 0 0 0-125.090909 27.345455l-24.785455-52.712727A357.469091 357.469091 0 0 1 709.818182 521.890909C861.789091 523.636364 962.210909 608.349091 991.418182 686.545455c15.592727 42.24 9.309091 81.454545-16.174546 104.727272-50.036364 49.221818-131.84 50.734545-210.967272 52.247273-17.570909 0-35.84 0.698182-52.945455 1.629091z" fill="" p-id="29753"></path><path d="M563.898182 618.356364l-29.44-50.152728c8.145455-4.770909 16.756364-9.309091 25.483636-13.381818l24.785455 52.712727c-7.214545 3.258182-14.545455 6.981818-20.829091 10.821819z" fill="" p-id="29754"></path></svg>