<?xml version="1.0" standalone="no"?><!DOCTYPE svg PUBLIC "-//W3C//DTD SVG 1.1//EN" "http://www.w3.org/Graphics/SVG/1.1/DTD/svg11.dtd"><svg t="1695458450233" class="icon" viewBox="0 0 1024 1024" version="1.1" xmlns="http://www.w3.org/2000/svg" p-id="9908" xmlns:xlink="http://www.w3.org/1999/xlink" width="200" height="200"><path d="M815.500821 296.606897a329.899507 329.899507 0 0 0-305.686699-214.552381A329.899507 329.899507 0 0 0 201.773399 302.660099a223.968473 223.968473 0 0 0-178.233169 222.959605 222.623317 222.623317 0 0 0 218.587849 226.322496 25.221675 25.221675 0 0 0 0-50.443349 172.179967 172.179967 0 0 1-168.144499-175.879147 172.852545 172.852545 0 0 1 149.984893-175.879146 25.221675 25.221675 0 0 0 21.186207-17.487028 280.465025 280.465025 0 0 1 264.995731-199.755665A280.128736 280.128736 0 0 1 773.464696 327.209195a25.221675 25.221675 0 0 0 21.186207 17.150739 175.206568 175.206568 0 0 1 152.002627 177.560591 174.870279 174.870279 0 0 1-170.498522 178.905748 25.221675 25.221675 0 0 0 0 50.443349 225.313629 225.313629 0 0 0 220.941872-229.349097 226.322496 226.322496 0 0 0-181.596059-225.313628z" fill="#000000" p-id="9909"></path><path d="M528.310016 517.548768l-2.690312-1.681445-4.035468-2.690312h-18.495894a24.549097 24.549097 0 0 0-5.380624 3.699179h-2.690312L340.660755 672.577997a25.221675 25.221675 0 0 0 36.319212 33.6289l108.285058-111.311659v269.031199a25.221675 25.221675 0 0 0 50.443349 0v-269.031199l108.285058 111.647948a25.221675 25.221675 0 1 0 36.319212-33.6289z" fill="#000000" p-id="9910"></path></svg>