<svg width="24" height="24" fill="none" viewBox="0 0 24 24" xmlns="http://www.w3.org/2000/svg">
    <path
        d="M19.745 4a2.25 2.25 0 0 1 2.25 2.25v11.505a2.25 2.25 0 0 1-2.25 2.25H4.25A2.25 2.25 0 0 1 2 17.755V6.25A2.25 2.25 0 0 1 4.25 4h15.495Zm0 1.5H4.25a.75.75 0 0 0-.75.75v11.505c0 .414.336.75.75.75l2.749-.001L7 15.75a1.75 1.75 0 0 1 1.606-1.744L8.75 14h6.495a1.75 1.75 0 0 1 1.744 1.607l.006.143-.001 2.754h2.751a.75.75 0 0 0 .75-.75V6.25a.75.75 0 0 0-.75-.75Zm-4.5 10H8.75a.25.25 0 0 0-.243.193l-.007.057-.001 2.754h6.995V15.75a.25.25 0 0 0-.192-.243l-.057-.007ZM12 7a3 3 0 1 1 0 6 3 3 0 0 1 0-6Zm0 1.5a1.5 1.5 0 1 0 0 3 1.5 1.5 0 0 0 0-3Z"
        fill="#fff" />
</svg>