<svg width="24" height="24" fill="none" viewBox="0 0 24 24" xmlns="http://www.w3.org/2000/svg">
    <path
        d="M11.272 7.25a.75.75 0 0 1 .75-.75h4.728a.75.75 0 0 1 .75.75v4.729a.75.75 0 0 1-1.5 0V9.06l-5.22 5.22a.75.75 0 1 1-1.06-1.061L14.94 8h-2.918a.75.75 0 0 1-.75-.75Z"
        fill="#212121" />
    <path
        d="M6.157 5.25A3.251 3.251 0 0 1 9.25 3h8.5A3.25 3.25 0 0 1 21 6.25v8.588a3.251 3.251 0 0 1-2 3.001v.136c0 1.05-.53 1.845-1.309 2.344-.75.48-1.717.686-2.693.68h-.002l-4.077-.004H7c-1.157 0-2.164-.362-2.89-1.045-.727-.686-1.11-1.64-1.11-2.7V8.5c0-.865.216-1.683.734-2.296.534-.633 1.31-.954 2.222-.954h.2ZM6 6.75h-.044c-.544 0-.871.179-1.076.421-.22.262-.38.694-.38 1.329v8.75c0 .69.242 1.234.64 1.608.4.377 1.017.637 1.86.637h3.92L15 19.5h.004c.788.004 1.445-.166 1.878-.444.372-.238.582-.55.614-.968H9.25A3.25 3.25 0 0 1 6 14.838V6.75ZM9.25 4.5A1.75 1.75 0 0 0 7.5 6.25v8.588c0 .967.784 1.75 1.75 1.75h8.5a1.75 1.75 0 0 0 1.75-1.75V6.25a1.75 1.75 0 0 0-1.75-1.75h-8.5Z"
        fill="#212121" />
</svg>