<svg width="18" height="12" viewBox="0 0 18 12" fill="none" xmlns="http://www.w3.org/2000/svg">
<path fill-rule="evenodd" clip-rule="evenodd" d="M5.09125 7.28713C5.09142 6.70952 5.22111 6.13916 5.47096 5.6172C5.72081 5.09523 6.08459 4.63469 6.53604 4.26881C4.61196 3.59731 1.81235 2.25945 0.999109 0C0.999109 0 0.82608 2.28858 2.21031 4.84952C2.21031 4.84952 3.68279 5.80538 4.27109 7.09356L3.12737 6.39465C3.41639 7.3131 3.77084 8.21011 4.18804 9.07893C4.85247 10.3466 6.09136 11.3058 6.09136 11.3058C6.09136 11.3058 5.51517 9.59283 6.19171 10.004L6.25746 10.0485C5.88735 9.68626 5.59353 9.2549 5.39305 8.77942C5.19256 8.30395 5.08939 7.7938 5.08952 7.27856L5.09125 7.28713ZM11.5126 4.25168C11.9705 4.6172 12.3399 5.07953 12.5938 5.60477C12.8476 6.13001 12.9796 6.70484 12.9799 7.28713C12.9791 7.63908 12.9308 7.98935 12.8363 8.32863C12.6632 8.93912 12.3418 9.4984 11.9002 9.9577C12.4003 9.80182 11.9002 11.3076 11.9002 11.3076C11.9002 11.3076 13.1374 10.3448 13.8035 9.08064C14.2211 8.21257 14.5755 7.3161 14.8642 6.39808L13.7291 7.08328C14.3226 5.80195 15.783 4.84952 15.783 4.84952C17.1672 2.28858 16.9942 0 16.9942 0C16.1931 2.2389 13.4332 3.57333 11.5126 4.25168ZM11.7254 7.28712C11.7254 8.75826 10.5208 9.95084 9.03485 9.95084C7.54887 9.95084 6.34424 8.75826 6.34424 7.28712C6.34424 5.81599 7.54887 4.6234 9.03485 4.6234C10.5208 4.6234 11.7254 5.81599 11.7254 7.28712Z" fill="#8C513A"/>
</svg>
