<svg width="17" height="15" viewBox="0 0 17 15" fill="none" xmlns="http://www.w3.org/2000/svg">
<path d="M7.61488 15C7.90271 14.2471 8.14287 13.4744 8.33375 12.6872C7.75357 12.5611 7.21753 12.2657 6.78526 11.8339C6.353 11.402 6.04145 10.8506 5.88528 10.2411C5.72911 9.63153 5.73445 8.98768 5.90068 8.38116C6.06692 7.77464 6.38755 7.22924 6.82689 6.80561C5.56024 5.40575 3.3708 2.56363 3.76479 0C3.76479 0 2.61564 1.82958 2.60009 4.64589C2.60009 4.64589 3.26884 5.95906 3.29131 7.23903C2.37026 6.36297 1.39045 5.10697 1.36799 3.73478C1.36799 3.73478 1.32479 3.84913 1.26776 4.05201L1.1347 4.63667C1.05957 5.0581 1.01967 5.48582 1.01547 5.91479C0.99224 6.36754 0.99224 6.82132 1.01547 7.27407C1.07101 8.50634 1.35406 9.71476 1.84839 10.83C1.84839 10.83 2.08167 10.8816 2.45148 10.9867C3.41745 11.2486 4.76188 11.7245 5.82808 12.4825L5.92658 12.5544C6.75777 13.1501 7.41616 13.9137 7.5233 14.8672" fill="#F4C874"/>
<path d="M11.1591 9.33981C11.1594 8.8783 11.0315 8.42704 10.7915 8.04312C10.5515 7.6592 10.2102 7.35988 9.81083 7.18301C9.41142 7.00614 8.97184 6.95967 8.54769 7.04949C8.12354 7.1393 7.73387 7.36136 7.42798 7.68758C7.12209 8.01379 6.91373 8.4295 6.82924 8.88213C6.74475 9.33475 6.78794 9.80395 6.95334 10.2304C7.11874 10.6568 7.39893 11.0213 7.75845 11.2777C8.11797 11.5342 8.54067 11.6711 8.97309 11.6711C9.55241 11.6706 10.1079 11.4249 10.5177 10.9878C10.9275 10.5508 11.1582 9.95812 11.1591 9.33981Z" fill="#3FBFDD"/>
<path d="M10.3849 15C10.0971 14.2471 9.8569 13.4744 9.66602 12.6872C10.2462 12.5611 10.7822 12.2657 11.2145 11.8339C11.6468 11.402 11.9583 10.8506 12.1145 10.2411C12.2707 9.63153 12.2653 8.98768 12.0991 8.38116C11.9328 7.77464 11.6122 7.22924 11.1729 6.80561C12.4395 5.40575 14.629 2.56363 14.235 0C14.235 0 15.3841 1.82958 15.398 4.64589C15.398 4.64589 14.7309 5.95906 14.7067 7.23903C15.6278 6.36297 16.6076 5.10697 16.63 3.73478C16.63 3.73478 16.6733 3.84913 16.7303 4.05201L16.8616 4.63298C16.9383 5.05421 16.9788 5.48202 16.9826 5.9111C17.0058 6.36386 17.0058 6.81763 16.9826 7.27038C16.9287 8.50227 16.6474 9.71068 16.1548 10.8263C16.1548 10.8263 15.9198 10.8779 15.5517 10.983C14.584 11.2449 13.2413 11.7208 12.1751 12.4788L12.0749 12.5507C11.2437 13.1464 10.5853 13.91 10.4782 14.8635" fill="#F4C874"/>
</svg>
