<svg width="20" height="20" viewBox="0 0 20 20" fill="none" xmlns="http://www.w3.org/2000/svg">
<path fill-rule="evenodd" clip-rule="evenodd" d="M7.26501 7.77728C6.70441 8.45162 6.39721 9.31003 6.39902 10.1971C6.40066 10.8058 6.54682 11.4049 6.8248 11.9423C7.10279 12.4798 7.5042 12.9393 7.99417 13.2811C8.10529 13.3595 8.22097 13.4308 8.34056 13.4947C8.57923 13.8456 8.74711 14.2421 8.83427 14.6607C8.92142 15.0794 8.92611 15.5118 8.84803 15.9323C8.70255 14.8586 7.17668 13.4502 6.49601 13.0923C5.81534 12.7344 6.49601 14.4082 6.49601 14.4082C4.85133 13.4099 4.53293 12.4616 4.21748 11.5221C3.98661 10.8345 3.75732 10.1516 3.01078 9.45731C4.15628 9.79612 4.53888 10.3538 4.53888 10.3538C4.39221 8.54614 2.51869 7.99745 2.51869 7.99745C2.27947 7.16721 2.14678 6.49021 2.0302 5.89533C1.81547 4.79969 1.65534 3.98265 0.984772 3C4.28701 3.89704 5.63879 5.52611 7.26501 7.77728ZM13.6043 10.1971C13.6061 9.31003 13.2989 8.45163 12.7383 7.77729C14.3645 5.52612 15.7163 3.89704 19.0185 3.00001C18.3479 3.98265 18.1878 4.7997 17.9731 5.89534C17.8565 6.49021 17.7238 7.16722 17.4846 7.99745C17.4846 7.99745 15.6111 8.54615 15.4644 10.3538C15.4644 10.3538 15.847 9.79612 16.9925 9.45731C16.2459 10.1516 16.0167 10.8345 15.7858 11.5221C15.4703 12.4616 15.1519 13.4099 13.5073 14.4082C13.5073 14.4082 14.1879 12.7344 13.5073 13.0923C12.8266 13.4502 11.3007 14.8586 11.1552 15.9323C11.0772 15.5118 11.0818 15.0794 11.169 14.6607C11.2562 14.2421 11.424 13.8456 11.6627 13.4947C11.7823 13.4308 11.898 13.3595 12.0091 13.2811C12.4991 12.9393 12.9005 12.4798 13.1785 11.9423C13.4565 11.4049 13.6026 10.8058 13.6043 10.1971ZM10.0364 12.811C11.4052 12.811 12.5149 11.6702 12.5149 10.263C12.5149 8.85575 11.4052 7.71497 10.0364 7.71497C8.66759 7.71497 7.55795 8.85575 7.55795 10.263C7.55795 11.6702 8.66759 12.811 10.0364 12.811Z" fill="#8141EB"/>
</svg>
