<svg width="20" height="20" viewBox="0 0 20 20" fill="none" xmlns="http://www.w3.org/2000/svg">
<path fill-rule="evenodd" clip-rule="evenodd" d="M7.28209 7.77729C6.7215 8.45163 6.41429 9.31003 6.4161 10.1971C6.41774 10.8058 6.5639 11.4049 6.84189 11.9423C7.11988 12.4798 7.52129 12.9393 8.01126 13.2811C8.12238 13.3595 8.23806 13.4308 8.35765 13.4947C8.59632 13.8456 8.76419 14.2421 8.85135 14.6607C8.93851 15.0794 8.94319 15.5118 8.86512 15.9323C8.71963 14.8586 7.19376 13.4502 6.51309 13.0923C5.83243 12.7344 6.51309 14.4082 6.51309 14.4082C6.51309 14.4082 5.3646 13.5605 4.33093 11.9941C4.31699 11.973 4.30313 11.9519 4.28935 11.931C3.62867 10.9293 3.1492 10.2023 2.13162 9.92188C3.11722 9.58748 4.55596 10.3538 4.55596 10.3538C4.25113 8.93645 2.75644 7.72209 2.75644 7.72209C2.13463 6.23542 1.89602 4.60908 2.06365 3C2.66984 5.46254 5.60208 7.04903 7.28209 7.77729ZM13.6042 10.1971C13.606 9.31003 13.2988 8.45163 12.7382 7.77729C14.4183 7.04903 17.3505 5.46254 17.9567 3C18.1243 4.60908 17.8857 6.23542 17.2639 7.72209C17.2639 7.72209 15.7692 8.93645 15.4644 10.3538C15.4644 10.3538 16.9031 9.58748 17.8887 9.92188C16.8711 10.2023 16.3917 10.9293 15.731 11.931L15.6894 11.9941C14.6557 13.5605 13.5072 14.4082 13.5072 14.4082C13.5072 14.4082 14.1879 12.7344 13.5072 13.0923C12.8266 13.4502 11.3007 14.8586 11.1552 15.9323C11.0771 15.5118 11.0818 15.0794 11.169 14.6607C11.2561 14.2421 11.424 13.8456 11.6627 13.4947C11.7823 13.4308 11.898 13.3595 12.0091 13.2811C12.4991 12.9393 12.9005 12.4798 13.1785 11.9423C13.4564 11.4049 13.6026 10.8058 13.6042 10.1971ZM10.0364 12.811C11.4052 12.811 12.5149 11.6702 12.5149 10.263C12.5149 8.85575 11.4052 7.71497 10.0364 7.71497C8.66758 7.71497 7.55794 8.85575 7.55794 10.263C7.55794 11.6702 8.66758 12.811 10.0364 12.811Z" fill="#149C3A"/>
</svg>
