<svg xmlns="http://www.w3.org/2000/svg" width="24" height="24" viewBox="0 0 24 24">
    <g fill="none" fill-rule="evenodd">
        <g fill="#98A0A7">
            <g>
                <g>
                    <g>
                        <path d="M2.202 5.79l.38.214.535.104.558-.013.33.269.132.009.138-.05.11-.005.48.187.28-.1.004-.055-.05-.123.123-.082.073-.005.028.036.014.17.265.06.019-.065.068-.014.068.078-.009.068-.132.146-.399.028-.25.173-.377.105-.118.164-.124.214-.028.16.17.114.146.146.12.014v.096l-.074.154-.005.115.165-.019.174-.324.197-.123.023-.16.307-.42.256-.008.137.214-.018.064-.023.069.179.022.123-.16h.05l.032.329.17.383.018.1-.06.11-.356.169-.138.009-.04-.04-.28.004-.394.237v.059h.042l.256-.142.22-.013-.019.041-.068.073.009.136.16.074-.01.086-.228.05-.064.046v.046l-.05-.01-.01-.054.106-.06.004-.095-.197.05-.279.16-.1.164-.207.027-.2.283-.07.105-.072.013.031-.132h-.06l-.104.32-.27.2-.197.215-.032.237-.046.278-.018.105-.06.005-.073-.192-.009-.292-.115-.055-.178-.009-.128.032-.01.105-.123.01-.137-.06-.257-.005-.228.219-.156.279-.046.323.074.2.064.11.283.005.128-.206.303-.05v.11l-.225.393-.013.072.416.01-.05.373v.178l.078.037.045.087.092.054.087-.036.073-.041.064.027.05.064.005.032h.078l.087-.237.123-.037.137-.077.097-.07.046.015-.005.06-.055.04-.014.069-.032.036-.006.087.052.048.075-.028v-.17l.057-.124.071.009.21.171.159.03.1-.041.076-.012.04.014.07.119.12.116.09.075.13.144.31.066.11.116.096.119.055.166-.035.121-.052.08-.053.075.005.043.052.003v-.048l.117-.062.043-.025.076.007.01.037.004.04-.028.056-.054.02-.05.003v.068l.104-.005.071-.061.032-.1.071-.017.078.092.087.05.245.1.188.02.267.16.108.002.057.363-.323.442.044.199-.003.232-.105.343-.052.23-.287.11-.235.148-.035.364-.087.263-.093.244-.103.139-.078.007-.197-.119-.082-.007.217.272-.082.13-.076.102-.125.01-.092.036v.052l.043.025-.036.096-.11.041-.023.012v.063l.09.09-.035.189-.09.148.198.14-.003.081-.047.091-.003.187.055.137-.073.105v.067L5.41 19l-.106-.084-.022-.1-.08-.016-.275-.468-.05-.025-.037-.007.005-.057.066-.055.007-.075-.112-.323-.167-.097-.014-.088-.018-.126-.037-.098.02-.235.021-.013-.002-.295-.066-.105-.003-.31-.022-.143-.021-.151-.02-.178-.017-.178-.013-.15-.044-.156-.039-.068-.187-.164-.106-.087-.204-.22-.114-.158-.076-.137-.096-.183-.043-.088-.046-.126-.16-.1-.006-.221.09-.094.003-.06h-.068l-.003-.136.055-.242.218-.224.004-.303-.004-.125-.033-.094-.034-.034-.039-.004-.046.034-.011.096-.098.01-.165-.156-.151-.103-.064-.08-.012-.102-.061-.112-.05-.098-.106.004-.16-.116-.066-.043-.07-.05-.063-.09-.066-.047-.049.034-.087.041-.33-.18-.169-.108-.132-.106-.067-.114.021-.092-.014-.242-.142-.298-.098-.24-.048-.191-.002-.262-.005-.135h-.032l-.034.098-.048.183-.014.12.036.121.087.276.065.251.002.064-.08-.005-.048-.148-.076-.13-.077-.148-.015-.105.055-.148-.038-.096-.021-.153-.018-.086-.007-.14-.13-.127-.005-.203.032-.224.087-.225.243-.407.153-.266.117-.153h.08l.018.057.04.006.003-.08.034-.2-.047-.123.002-.146.085-.267.084-.219.043-.111-.002-.062-.04.007-.051.028h-.069l-.027-.044-.016-.057-.028-.073-.091-.02-.117-.08-.053-.046h-.05l-.052.055-.09.046-.057.022-.06.007-.08-.004-.016-.032.05-.05.06-.026.064-.052.06-.037.004-.041h-.053l-.146.066-.556.283-.229.117-.084.04H0l.01-.086.384-.187v-.041l-.11-.028V6.72l.114-.228.17-.01.32-.096.092-.264.389-.2.279-.01.476-.123h.078zm21.153 12.372l.072.082.005.093-.12.043-.203.065-.152.12-.088.06-.066.092-.07.038-.142.006-.066-.01-.017-.11.083-.055.201-.064.126-.104.17-.071.131-.141.136-.044zm.448-.675l.044.06.033.218v.12l.12.021v.076l-.11-.005-.108.076-.12.13-.083.11-.087-.017.01-.103.04-.136.103-.05.082-.108.032-.163.017-.17.027-.059zm-1.289-2.885l.016.414.044.397.175.441.098.528-.13.316-.296.473-.382.409-.082.043-.115.022-.093.076-.093.038-.07-.016v-.06h-.082l-.06.082-.072-.054-.093-.142-.032-.17-.044-.157.115-.098.005-.054h-.06l-.12.06-.022.07-.054.022-.011-.103.005-.164-.066-.065-.475.016-.366.071-.333.147-.125.022-.082.005-.088-.114.12-.414.072-.451.038-.404.344-.179.3-.054.399-.365.251-.223.126-.006v.082h.158l-.055-.066.011-.07.093-.033.132-.163.065-.082h.076l.066.06.17.028.027.065-.099.25.011.098.06.065.17.169.098-.016.142-.277.038-.224.055-.169.071-.076h.05zm-5.97-8.954l.092.027-.022.091-.129.173.01.018.045.006.22-.106.256-.013.874.15.101.019.22-.019.032-.087.045-.072.138.009.366.087.348-.014.247-.01.27.083.224-.005.252-.114.22.005.526.059.361.1.202.046.1.095v.047h-.082l-.11-.032h-.087l-.054.004-.051-.019-.046.015-.005.118.147.06.128.032.055.04-.014.069-.146.219v.04l-.201.019-.101.064.05.087.174.168.16.251.074.228v.146l-.056-.005-.091-.104-.155-.16-.207-.178-.155-.1.005-.133.063-.09-.027-.151-.069-.123-.045-.005-.05.068h-.033l-.05-.036-.078.014-.014.123.055.114-.096.077-.17.028-.155.009-.155.009-.147.041-.036.041.004.32.12.127.059.005.023-.032h.091l.105.086.152.183.114.2.073.187.05.252.005.241-.22.073-.041.192-.018.164.096.15.128.178.028.046v.073l-.087.068-.078.041-.005-.082-.082-.141-.069-.123-.1-.073-.142-.142h-.037l-.087.096-.078-.032v-.087l.023-.036-.091-.01-.142.147-.005.077.092.087.192.013.096.028-.014.064-.05.023.01.109.182.297.092.191-.055.032.06.05.059.064v.342l-.096.128-.247.246-.216.142-.077.118h-.06l-.032-.077-.064-.05-.087.04-.1.242.022.096.206.187.142.16.01.305-.065.114-.068.087-.096.082-.042.073-.059.005-.005-.083-.036-.068-.07-.04-.082-.078-.009-.092-.073-.027-.068-.046-.028-.059h-.096l.041.237v.187l.087.187.083.128.1.15.069.155.055.101-.023.068-.06.005-.082-.087h-.041l-.147-.32-.073-.1-.128-.132-.005-.328-.018-.223-.069-.206-.082-.2-.045.013-.065.078-.078.027-.068-.032.028-.2-.165-.183-.087-.078-.015-.073-.004-.128h-.1l-.092.124-.074-.01-.031-.045-.087.041-.083.178-.114.15-.105.133-.156.223-.06.301-.032.21-.06.265-.063-.01-.069-.036-.082-.21-.105-.196-.183-.41-.07-.279-.017-.287h-.078l-.014.133-.05.018-.083-.046-.137-.141-.046-.082-.045-.078-.105-.1-.554-.005-.101-.032-.12-.046v-.09l-.068-.05-.1.013-.055.05h-.147l-.069-.068-.16-.151-.086-.09-.101.008-.055.064.014.045.11.096.054.105.055.023.014.069.046.013.068-.037.041.042v.123l.065.013.123.014.05-.068.06-.096h.087l-.004.114.018.073.073.032.096.018.05.028.032.054-.086.265-.124.16-.128.118-.092.054-.164.11-.12.118-.114.078-.32.073-.096.023-.096-.155-.042-.082-.04-.292-.234-.314-.348-.548-.096-.251-.046.05-.028-.01-.004-.026-.092-.005.024.087.05.146.173.333.147.233.005.159.192.196.045.205.056.032.133.137.123.132-.005.192.078.009.179-.045.288-.096.151-.023.009.073-.27.657-.233.31-.28.287-.215.265-.018.324.1.62.01.169-.187.2-.202.17-.17.14.046.22-.004.227-.211.137v.073l-.155.297-.22.25-.17.133-.174.023-.224.054-.105.087-.064-.009-.027-.05-.129-.092-.018-.232-.215-.383-.05-.347-.032-.169-.179-.396.005-.37.165-.319-.074-.447-.128-.269-.233-.351.041-.183.055-.155.009-.114-.128-.018h-.142l-.151-.215-.156.019-.347.091-.435.137-.17-.032-.38-.406-.274-.338-.092-.2v-.22l.06-.223-.004-.237.022-.187.224-.447.12-.137h.077l.184-.219.027-.15.032-.078.15-.105.056-.073.092-.145h.059l.087.045.105-.004.256-.096.211-.046.124-.027.123-.032h.178l.206.014-.009.109-.05.132.018.055.087.077.1.037.152.018.045.014.033.114.114.064.179.032H12l.009-.064h-.032l.005-.082.096-.055.142-.032.078.06.1.072.137.087h.124l.083-.046.137-.027.064.004.082.01.041.027.05-.087.033-.095.041-.137v-.187l.032-.023v-.04l-.178.013-.128-.005-.147.018-.156.005-.063-.064-.042-.15-.04-.151h.082l.05-.05.041-.028h.064l.105-.018.046-.04.055-.037.055-.05h.12l.072.045.11.018.078.019.086.013.147-.004-.004-.091.022-.046-.05-.046h-.055l-.069-.054-.05-.046-.096-.055-.041-.046.013-.072.065-.064.046-.027v-.041l-.056-.015-.04.019-.193.096.055.054v.06l-.091.055h-.06l-.06-.06-.04-.132-.024-.036-.055.018-.114.05-.06.169-.063.118v.124l.036.068-.105.095h-.064l-.06-.04-.123.027-.023.068-.014.11v.223l-.105.018-.069-.063v-.128l.055-.014-.078-.04-.05-.078-.06-.137-.077-.105-.101-.064-.142-.132-.087-.037-.05-.055-.028-.045h-.05l-.018.073.046.046.05.09.014.051.1.05.087.032v.064l.106.068.059.06.032.068h-.032l-.041-.04h-.032l-.014.158-.023.037h-.04l-.01-.128-.06-.072-.073-.078-.078-.06-.096-.009-.064-.036-.087-.142-.032-.072-.064-.05-.064.027-.1.11-.088.017-.046-.05-.114.05-.023.092-.233.196-.092.196-.105.173-.064-.004-.083-.037-.072.018-.106.019-.096-.046-.064-.014-.06-.04v-.502l.014-.105.105-.032h.16l.156.036.078.014.092-.05-.024-.068.046-.078-.009-.155-.1-.064-.092-.046-.032-.027-.01-.064h.166l.018-.073-.032-.041.073-.005.041.06h.087l.174-.183.069-.031.045-.069.051-.032.018.064.033-.004-.005-.142.096-.027.124-.037.027-.105-.01-.155-.008-.082.073-.05.069-.014.022.082v.1l-.046.05v.087l.065.028.123.013.087-.004.105-.037.087-.009.11-.004.069.022.046-.009.031-.118.051-.123.041-.06.06.005.023.023.068-.028v-.059l-.028-.105.165-.018h.083l.096-.05-.037-.06-.031-.008-.083.004-.069.023-.082.04-.11-.004-.119-.232v-.073l.1-.096.078-.091v-.114h-.045l-.064-.028-.083.087-.078.096-.004.063-.092.06-.073.155.046.114v.087l-.073.123-.05.123v.055l-.046.05-.055.032-.028.05-.082.004-.023-.095-.027-.092-.055-.045v-.1l-.032.009v-.069l-.083.046-.045.009-.033.046-.1.004-.055-.073v-.26l.124-.086.11-.106.219-.204.16-.16.21-.2.353-.238h.156l.146.068.087.042.238.09.206.142h.06l.04.064.037.018v.077l-.036.047-.096.004-.11-.055-.101-.037-.105-.031-.005.09.069.056.082.045.124.128h.082l.156-.16.05-.013.082-.074.02.032.072.005V6.75l-.046-.04v-.064l-.055-.033v-.082h.055l.1.064.006.096.04.005.156-.041.183-.073.147-.046.228-.064.23-.018.118.073.096-.01V6.46l-.072-.101-.06-.014-.005-.086.137-.137.024-.041.114-.01.023.037-.01.115.22.291v.105l-.082.041-.028.055h.115l.077-.068.005-.133h.12l.05-.013-.01-.05-.169-.05-.123-.088-.06-.127.275-.155.114-.096.155-.128.39-.123.155-.032.6-.004zm-1.98 8.999l.004.136.004.283-.174.475-.105.387-.174.06-.096.004-.073-.16-.01-.155.11-.242.005-.122-.032-.014.05-.187.133-.1.078-.06.069-.11.174-.186.036-.01zm7.141-1.156l.072.028.082.038.022.038v.082l-.006.065.098-.011.12-.076.203.038.147.066.131.048.18.137.203.168-.023.076.023.055.07.114.12.169-.016.07-.12-.005-.12-.054-.06-.114-.115-.137-.06.006-.12.147-.088-.044-.141-.033-.143-.108-.005-.17-.038-.064-.148-.098-.153-.136-.13-.027-.088-.213.06-.044.043-.01zm-2.204.512l.11.046.22.027.128.055.146.119.037.118-.091-.008-.092-.056-.128-.009-.12-.045-.219-.055-.073-.064h-.11l.046-.082.146-.046zm1.582-.723l.005.037-.043.05-.11.005-.223.016-.028.175.115-.055.093-.05.076.012-.005.043-.055.006-.11.082-.01.076.082.109.022.076-.044.076-.103.027-.006-.076-.011-.169h-.06l-.022.098.027.174-.01.028h-.077v-.158l-.044-.098v-.174l.082-.229.05-.07h.125l.017.037h.114l.115-.043.038-.005zm-2.506-.417l.302.246.275.293.174.19.11.129-.019.136v.11l-.119.027-.202-.191-.228-.365-.174-.255-.138-.201h-.054l-.01-.082.083-.037zm1.692-.15l.137.006.055.049.038.049.048.07-.092.082-.027.142.065.087.038.12-.098.098-.087.196-.077.195-.055.044h-.103l-.296-.136-.06-.185-.037-.18v-.098h.043l.246-.157.153-.18.082-.11.027-.092zm.312-1.31l.092.12-.055.145.055.174.128.036.11.091.018.064h-.073l-.11-.11-.146.01-.129-.182-.018-.092.037-.045-.019-.128-.018-.073.128-.01zm-17.203-.337l.348.014.389.27v.054l-.014.023h-.28l.028-.069-.05-.036-.091-.069-.07-.091-.356-.004v-.037l.096-.055zM21.14 8.904l.082.073.092.146.054.178.042.118-.023.17-.12.013-.068-.068h-.128l-.123.073-.005.123-.082.036-.083-.013-.009-.06.083-.1.192-.141.004-.114h.041l.069.027.04-.137-.063-.055-.05-.16-.019-.104.074-.005zM6.467 8.23l.014.046-.046.123.046.06.018.145-.022.128-.12-.064-.087-.05h-.137l-.037-.105v-.046l.303-.214.068-.023zm3.822-.661v.037l-.028.036.073.032.033.064-.078.041.009.064.06.1.05.123.055.105.1.014-.004.068-.064.087-.147.04-.183.028-.146.032.009-.055.105-.032v-.045l-.032-.042.046-.104.105-.073.004-.11-.068-.018-.106-.114V7.7l.065-.123.142-.009zm9.954-.023l.059.004.046.046.082.119.092.096h.045l.16.173.07.036-.01.037-.022.05.063.114.055.05.06.046v.064h-.041v.022h-.05l-.06-.141-.083-.05-.064-.091-.11-.133-.118-.132-.11-.182-.078-.082.014-.046zM8.833 5l.66.018v.05l-.065.042-.137.027v.036l.077.041.106.05.087.064.105-.027.105-.059.17.01.114.013.01.054-.079.014-.183.073-.027.059-.183.1-.17.133.005.132.147.083v.044l-.1.138-.079.077h-.078l-.037-.037-.077.037.005.078.087.077v.046l-.092.009-.05-.037h-.037v.065l.11.045.073.01-.028.086-.2.013-.316.046-.353.137-.302.096-.407.506-.087.046-.124-.124-.142-.082v-.37l.197-.268.133-.233-.087-.196-.055-.27-.16-.122-.128.005h-.11l-.014-.12.096-.068.055.014H7.4l.064-.05v-.096l.745-.31.129-.01.114.074.288-.014L8.833 5zm-2.974.917l.15.005.083.004.013.041-.018.041.046.064.197-.037.073.087.16.087.087.104-.018.073-.06.06v.036l.243.151-.014.068-.247.147-.073-.042-.055-.095-.027.009-.01.141-.132.25-.05.02-.087-.07-.198-.191H5.69l-.046-.046.114-.113h.193l.247-.251.078-.074-.041-.068-.243-.027-.201-.032-.16-.05-.019-.123.248-.169zm3.33.848l.056.092h.069l.091-.042.174-.027.06.082-.028.123-.132.087-.216-.009-.137-.041v-.064l-.05-.023-.019-.11.065-.063.068-.005zM4.459 5.88l.201.083.124.04v.069l-.069.063.028.041.018.051-.027.023-.097.014-.064.054-.087-.023-.073-.036h-.174l-.179.014-.1-.078.004-.055.16-.014.106.023.004-.05-.091-.027h-.018v-.06l.21-.123.124-.009zm2.517-.834l.105.068h.33L7.61 5.1l.065.005.009.05-.225.142-.228.009-.243.082-.247.25-.115.014-.17.014-.067-.078-.01-.063.124-.11.21-.087.183-.059.005-.046-.16-.027-.22.023-.11-.018v-.06l.17-.036.178-.06h.215z" transform="translate(-436.000000, -1227.000000) translate(420.000000, 1215.000000) translate(4.000000, 4.000000) translate(12.000000, 8.000000)"/>
                    </g>
                </g>
            </g>
        </g>
    </g>
</svg>
