<svg width="17" height="13" viewBox="0 0 17 13" fill="none" xmlns="http://www.w3.org/2000/svg">
<path fill-rule="evenodd" clip-rule="evenodd" d="M10.7388 4.77729C11.2994 5.45163 11.6066 6.31003 11.6048 7.1971C11.6032 7.8058 11.457 8.40488 11.179 8.94233C10.901 9.47977 10.4996 9.93932 10.0096 10.2811C9.89852 10.3595 9.78284 10.4308 9.66325 10.4947C9.42458 10.8456 9.25671 11.2421 9.16955 11.6607C9.08239 12.0794 9.07771 12.5118 9.15578 12.9323C9.30127 11.8586 10.8271 10.4502 11.5078 10.0923C12.1885 9.73442 11.5078 11.4082 11.5078 11.4082C11.5078 11.4082 12.7773 10.5286 13.51 9.30352C13.9738 8.45975 14.3789 7.5833 14.7224 6.68073L13.4649 7.35379C13.7698 5.93645 15.2645 4.72209 15.2645 4.72209C15.8863 3.23542 16.1249 1.60908 15.9573 0C15.3511 2.46254 12.4188 4.04903 10.7388 4.77729ZM4.40497 7.26298C4.40347 6.37598 4.71064 5.51767 5.27096 4.84318C3.59441 4.11492 0.660441 2.5213 0.0559813 0.0658875C-0.111632 1.67555 0.126966 3.30246 0.748772 4.78976C0.748772 4.78976 2.22788 6.00233 2.53271 7.41967L1.27356 6.7484C1.61959 7.65073 2.02764 8.52661 2.4946 9.36941C3.22723 10.5944 4.5037 11.474 4.5037 11.474C4.5037 11.474 3.81091 9.79318 4.5037 10.16C5.19649 10.5268 6.69984 11.9299 6.84533 12.9982C6.9234 12.5777 6.91872 12.1453 6.83156 11.7266C6.7444 11.3079 6.57653 10.9115 6.33786 10.5606C6.21864 10.4954 6.103 10.4235 5.99147 10.3452C5.50334 10.0026 5.10377 9.54289 4.82733 9.00584C4.5509 8.4688 4.40593 7.87059 4.40497 7.26298ZM8.03695 9.81098C9.40576 9.81098 10.5154 8.6702 10.5154 7.26297C10.5154 5.85575 9.40576 4.71497 8.03695 4.71497C6.66813 4.71497 5.55849 5.85575 5.55849 7.26297C5.55849 8.6702 6.66813 9.81098 8.03695 9.81098Z" fill="#CD8837"/>
</svg>
