<svg xmlns="http://www.w3.org/2000/svg" width="24" height="24" viewBox="0 0 24 24">
    <g fill="none" fill-rule="evenodd">
        <g fill="#9AA4AF" fill-rule="nonzero">
            <g>
                <path d="M5.14 2c1.58 1.21 5.58 5.023 6.976 9.953s0 10.047 0 10.047c-2.749-3.164-5.893-5.2-6.18-5.382l-.02-.013C5.45 13.814 3 8.79 3 8.79c3.536.867 4.93 4.279 4.93 4.279C7.558 8.698 5.14 2 5.14 2zm14.976 5.907s-1.243 2.471-1.814 4.604c-.235.878-.285 2.2-.29 3.058v.282c.003.347.01.568.01.568s-1.738 2.397-3.38 3.678c.088-1.601.062-3.435-.208-5.334.928-2.023 2.846-5.454 5.682-6.856zm-2.124-5.331s-2.325 3.052-2.836 6.029c-.11.636-.201 1.194-.284 1.695-.379.584-.73 1.166-1.05 1.733-.033-.125-.06-.25-.095-.375-.302-1.07-.704-2.095-1.16-3.08.053-.146.103-.29.17-.438 0 0 1.814-3.78 5.255-5.564z" transform="translate(-2164.000000, -763.000000) translate(2164.000000, 763.000000)"/>
            </g>
        </g>
    </g>
</svg>
