<svg width="17" height="12" viewBox="0 0 17 12" fill="none" xmlns="http://www.w3.org/2000/svg">
<path fill-rule="evenodd" clip-rule="evenodd" d="M5.09169 7.28713C5.09174 6.7095 5.22139 6.1391 5.47128 5.61712C5.72117 5.09514 6.08505 4.63461 6.53664 4.26881C4.61235 3.59731 1.81243 2.25945 0.999109 0C0.999109 0 0.826062 2.28858 2.21044 4.84952C2.21044 4.84952 3.68308 5.80538 4.27144 7.09356L3.1276 6.39465C3.41666 7.3131 3.77114 8.21011 4.18838 9.07893C4.85288 10.3448 6.09191 11.3058 6.09191 11.3058C6.09191 11.3058 5.51566 9.59283 6.19054 10.004C6.21382 10.0176 6.23635 10.0325 6.25803 10.0485C5.88788 9.68626 5.59403 9.2549 5.39352 8.77942C5.19302 8.30395 5.08983 7.7938 5.08996 7.27856L5.09169 7.28713ZM11.5123 4.25168C11.9343 4.58914 12.2812 5.00928 12.5314 5.48574C12.7816 5.96221 12.9296 6.48472 12.9662 7.02049C13.0028 7.55626 12.9271 8.09373 12.7439 8.59918C12.5607 9.10462 12.2739 9.56714 11.9016 9.9577C12.4017 9.80182 11.9016 11.3076 11.9016 11.3076C11.9016 11.3076 13.1407 10.3431 13.8052 9.08064C14.2203 8.21155 14.5731 7.31457 14.8608 6.39636L13.7256 7.08157C14.3243 5.80195 15.7831 4.84952 15.7831 4.84952C17.1588 2.28858 16.9944 0 16.9944 0C16.1932 2.2389 13.4348 3.57333 11.5123 4.25168ZM11.7269 7.28712C11.7269 8.75826 10.5221 9.95084 9.03598 9.95084C7.54984 9.95084 6.34509 8.75826 6.34509 7.28712C6.34509 5.81599 7.54984 4.6234 9.03598 4.6234C10.5221 4.6234 11.7269 5.81599 11.7269 7.28712Z" fill="#51484A"/>
</svg>
