<svg width="24" height="24" viewBox="0 0 24 24" fill="none" xmlns="http://www.w3.org/2000/svg">
    <rect x="1" y="1.00002" width="22" height="22" rx="4" fill="url(#paint0_linear_1889_7314)" />
    <path fill-rule="evenodd" clip-rule="evenodd"
        d="M8.45818 9.80289C7.45621 9.80289 6.64115 8.98701 6.64115 7.98419C6.64115 6.98137 7.45621 6.1653 8.45818 6.1653C9.45981 6.1653 10.2747 6.98137 10.2747 7.98419C10.2747 8.98701 9.45981 9.80289 8.45818 9.80289ZM8.45801 4.52266C6.55134 4.52266 5 6.07559 5 7.98402C5 9.89281 6.55134 11.4456 8.45801 11.4456C10.3645 11.4456 11.9157 9.89281 11.9157 7.98402C11.9157 6.07559 10.3645 4.52266 8.45801 4.52266ZM16.0061 8.19942H14.1265V6.12403H16.0061C16.6547 6.12403 16.8523 6.73514 16.8523 7.16182C16.8523 7.60133 16.6547 8.19942 16.0061 8.19942ZM18.4856 7.16182C18.4856 5.67347 17.4701 4.5242 16.0137 4.5242H12.5749V11.4398H14.1263L14.1265 9.79945H16.0137C17.4177 9.79945 18.4856 8.65767 18.4856 7.16182ZM8.59486 15.3233H11.6751C11.6826 15.4094 11.6922 15.5464 11.699 15.7383C11.7102 16.0605 11.6931 16.2576 11.6282 16.6464C11.3665 18.2193 10.1501 19.1965 8.4548 19.1965C6.54992 19.1965 5 17.6453 5 15.7383C5 13.8315 6.54992 12.2798 8.4548 12.2798C9.47602 12.2798 10.4395 12.7293 11.0983 13.5129L11.1956 13.6289L11.0698 13.7129L9.95233 14.4585L9.85913 14.5209L9.78055 14.4405C9.42773 14.0789 8.95677 13.9111 8.4548 13.9111C7.43126 13.9111 6.59839 14.7137 6.59839 15.7383C6.59839 16.7627 7.43126 17.5963 8.4548 17.5963C9.31992 17.5963 9.89388 17.1072 10.0065 16.5614H8.59486V15.3233ZM18.9305 15.3241H15.8501V16.5622H17.2617C17.1493 17.108 16.5751 17.5973 15.7098 17.5973C14.6865 17.5973 13.8536 16.7636 13.8536 15.7392C13.8536 14.7144 14.6865 13.9117 15.7098 13.9117C16.2118 13.9117 16.6828 14.0798 17.036 14.4413L17.1145 14.5218L17.2077 14.4593L18.3252 13.7137L18.451 13.6296L18.3535 13.5138C17.6947 12.7302 16.7312 12.2807 15.7098 12.2807C13.805 12.2807 12.2554 13.8322 12.2554 15.7392C12.2554 17.6462 13.805 19.1973 15.7098 19.1973C17.4055 19.1973 18.6217 18.2202 18.8836 16.6473C18.9485 16.2586 18.9654 16.0612 18.9542 15.7392C18.9474 15.5473 18.9378 15.4103 18.9305 15.3241ZM17.6367 10.9312C17.6367 10.5443 17.9512 10.2295 18.3377 10.2295C18.7244 10.2295 19.0389 10.5443 19.0389 10.9312C19.0389 11.3181 18.7244 11.6328 18.3377 11.6328C17.9512 11.6328 17.6367 11.3181 17.6367 10.9312Z"
        fill="white" />
    <defs>
        <linearGradient id="paint0_linear_1889_7314" x1="1" y1="23" x2="23" y2="1"
            gradientUnits="userSpaceOnUse">
            <stop stop-color="#6636CF" />
            <stop offset="1" stop-color="#636FF9" />
        </linearGradient>
    </defs>
</svg>