<svg width="20" height="20" viewBox="0 0 20 20" fill="none" xmlns="http://www.w3.org/2000/svg">
<path fill-rule="evenodd" clip-rule="evenodd" d="M12.7382 7.77729C13.2988 8.45163 13.606 9.31003 13.6042 10.1971C13.6026 10.8058 13.4564 11.4049 13.1784 11.9423C12.9005 12.4798 12.4991 12.9393 12.0091 13.2811C11.898 13.3595 11.7823 13.4308 11.6627 13.4947C11.424 13.8456 11.2561 14.2421 11.169 14.6607C11.0818 15.0794 11.0771 15.5118 11.1552 15.9323C11.3007 14.8586 12.8266 13.4502 13.5072 13.0923C14.1879 12.7344 13.5072 14.4082 13.5072 14.4082C13.5072 14.4082 14.7768 13.5286 15.5094 12.3035C15.9732 11.4598 16.3784 10.5833 16.7218 9.68073L15.4644 10.3538C15.7692 8.93645 17.2639 7.72209 17.2639 7.72209C17.8857 6.23542 18.1243 4.60908 17.9567 3C17.3505 5.46254 14.4183 7.04903 12.7382 7.77729ZM6.40441 10.263C6.40291 9.37598 6.71007 8.51767 7.2704 7.84318C5.59385 7.11492 2.65988 5.5213 2.05542 3.06589C1.8878 4.67555 2.1264 6.30246 2.74821 7.78976C2.74821 7.78976 4.22732 9.00233 4.53214 10.4197L3.273 9.7484C3.61903 10.6507 4.02708 11.5266 4.49404 12.3694C5.22667 13.5944 6.50313 14.474 6.50313 14.474C6.50313 14.474 5.81034 12.7932 6.50313 13.16C7.19592 13.5268 8.69928 14.9299 8.84477 15.9982C8.92284 15.5777 8.91816 15.1453 8.831 14.7266C8.74384 14.3079 8.57597 13.9115 8.3373 13.5606C8.21807 13.4954 8.10243 13.4235 7.9909 13.3452C7.50277 13.0026 7.1032 12.5429 6.82677 12.0058C6.55034 11.4688 6.40537 10.8706 6.40441 10.263ZM10.0364 12.811C11.4052 12.811 12.5148 11.6702 12.5148 10.263C12.5148 8.85575 11.4052 7.71497 10.0364 7.71497C8.66757 7.71497 7.55792 8.85575 7.55792 10.263C7.55792 11.6702 8.66757 12.811 10.0364 12.811Z" fill="#25ACD6"/>
</svg>
