<svg width="16" height="16" viewBox="0 0 16 16" fill="none" xmlns="http://www.w3.org/2000/svg">
<path fill-rule="evenodd" clip-rule="evenodd" d="M7.99843 0L9.97792 2.28571H9.95707C9.34022 2.10018 8.68259 2 8 2C7.31741 2 6.65978 2.10018 6.04293 2.28571H6.01895L7.99843 0ZM8 14C7.31741 14 6.65978 13.8998 6.04293 13.7143H6.01895L7.99843 16L9.97792 13.7143H9.95707C9.34022 13.8998 8.68259 14 8 14ZM0 7.99999C0 6.12995 0.641634 4.40977 1.71676 3.0476H4.61169C3.0346 4.12868 2 5.94351 2 7.99999C2 10.0565 3.03461 11.8713 4.61171 12.9524H1.71677C0.641639 11.5902 0 9.87003 0 7.99999ZM14.2832 12.9524C15.3584 11.5902 16 9.87003 16 7.99999C16 6.12995 15.3584 4.40977 14.2832 3.0476H11.3883C12.9654 4.12868 14 5.94351 14 7.99999C14 10.0565 12.9654 11.8713 11.3883 12.9524H14.2832ZM11 8C11 9.65685 9.65685 11 8 11C6.34315 11 5 9.65685 5 8C5 6.34315 6.34315 5 8 5C9.65685 5 11 6.34315 11 8Z" fill="#63666B"/>
</svg>
